<?xml version="1.0" encoding="utf-8"?>
<!-- Generator: Adobe Illustrator 27.0.0, SVG Export Plug-In . SVG Version: 6.00 Build 0)  -->
<svg version="1.1" id="图层_1" xmlns="http://www.w3.org/2000/svg" xmlns:xlink="http://www.w3.org/1999/xlink" x="0px" y="0px"
	 viewBox="0 0 32 32" style="enable-background:new 0 0 32 32;" xml:space="preserve">
<style type="text/css">
	.st0{stroke:#FFFFFF;stroke-width:0.6;}
	.st1{fill:#F00000;stroke:#FFFFFF;stroke-width:0.6;}
</style>
<g id="组_3368" transform="translate(-110.272 -67.967)">
	<path id="路径_2690" class="st0" d="M126.3,70.1c-5.4-0.1-9.8,4.2-9.9,9.6c0,1.9,0.6,3.7,1.6,5.3l0.1,0.1l0.1,0.1l0,0.1
		c0,0,0.1,0.1,0.1,0.1l0,0l6.3,7.3c0.8,0.9,2.1,1,3,0.2c0.1-0.1,0.2-0.1,0.2-0.2l6.2-7.3l0,0c0.1-0.1,0.1-0.1,0.2-0.2l0-0.1
		c0,0,0.1-0.1,0.1-0.1c1.1-1.6,1.7-3.5,1.7-5.4C136,74.3,131.6,70,126.3,70.1C126.3,70.1,126.3,70.1,126.3,70.1z M126.3,72.2
		c4.2-0.1,7.6,3.3,7.7,7.5c0,1.5-0.5,3-1.4,4.2l-0.1,0.1l-6.2,7.3L120,84l-0.1-0.1l0,0c-0.9-1.2-1.4-2.7-1.4-4.2
		C118.6,75.5,122.1,72.1,126.3,72.2z"/>
	<path id="路径_2691" class="st0" d="M134.8,90.3c0.5-0.3,1.1-0.1,1.4,0.3l0,0.1l2.3,3.9c0.6,1,0.3,2.3-0.8,2.9
		c-0.3,0.2-0.6,0.3-0.9,0.3h-0.1l-20.9-0.1c-1.2,0-2.1-1-2.1-2.1c0-0.3,0.1-0.7,0.2-1l0.1-0.1l2.2-3.7c0.3-0.5,1-0.7,1.5-0.4
		c0.5,0.3,0.7,0.9,0.4,1.4l0,0.1l-2.2,3.7l20.9,0.1l-2.3-3.9C134.1,91.3,134.3,90.6,134.8,90.3z"/>
	<path id="路径_2692" class="st1" d="M126.3,75.6c-2.4,0-4.3,1.9-4.3,4.3c0,2.4,1.9,4.3,4.3,4.3c2.4,0,4.3-1.9,4.3-4.3l0,0
		C130.6,77.5,128.6,75.6,126.3,75.6z M126.3,77.7c1.2,0,2.1,1,2.1,2.1s-1,2.1-2.1,2.1c-1.2,0-2.1-1-2.1-2.1c0,0,0,0,0,0
		C124.1,78.7,125.1,77.7,126.3,77.7z"/>
</g>
</svg>
