<?xml version="1.0" encoding="UTF-8"?><svg id="a" xmlns="http://www.w3.org/2000/svg" viewBox="0 0 32 32"><g id="b"><path d="M5.82,4.81c-1.09,0-2.1,.42-2.85,1.18-.76,.76-1.17,1.77-1.17,2.84v14.34c0,1.09,.42,2.1,1.18,2.85,.76,.75,1.76,1.17,2.83,1.17h12.37c.38-.02,.68-.34,.67-.73,0-.41-.34-.74-.74-.75H5.82c-1.41-.02-2.53-1.14-2.55-2.55V8.83c0-.26,.04-.51,.12-.76l.12-.39,11.43,11.43c.57,.52,1.44,.52,2.02,0L28.32,7.68l.12,.39c.08,.25,.12,.5,.12,.76v7.7c0,.41,.33,.74,.74,.74s.74-.33,.74-.74v-7.7c0-2.23-1.81-4.02-4.02-4.02H5.82Zm10.13,13.19l-.18-.17L4.51,6.62l.34-.15c.31-.13,.64-.2,.97-.2H26.02c.34,0,.66,.07,.97,.2l.35,.15-.27,.26-11.11,11.11Z"/><polygon points="30.7 22.44 23.32 22.44 25.71 20.05 24.72 19.06 20.64 23.14 24.72 27.22 25.71 26.23 23.32 23.84 30.7 23.84 30.7 22.44" style="fill:#f00000;"/></g></svg>