<?xml version="1.0" encoding="UTF-8"?><svg id="a" xmlns="http://www.w3.org/2000/svg" viewBox="0 0 140 40"><path id="b" d="M136.28,19.07c1.13-.5,2.17-1.19,3.07-2.04,.1-.25,.19-.5,.28-.75-.18-.16-.38-.3-.6-.4-.5-.22-1.06-.26-1.58-.11-.42,.02-.83,.06-1.25,.1-5.45-1.22-10.91-2.39-16.35-3.68-2.89-.69-5.77-1.42-8.64-2.21-3.55-.85-6.97-2.17-10.17-3.93-.28-.2-.55-.41-.82-.62-.33-.31-.8-.42-1.23-.29-1.52,.11-3.01,.44-4.43,.98-1.05,.34-2.07,.75-3.07,1.24,.11-.06-2.36,1.21-1.9,1.58,2.92,2.19,6.21,3.85,9.7,4.91,3.05,.99,6.11,1.87,9.2,2.7,.6,.16,1.2,.29,1.81,.44-5.17,.28-10.34,.55-15.51,.8-8.96,.42-17.91,.48-26.88,.29-4.53-.25-9.09-.45-13.58-1.06-5.11-.69-10.19-1.45-15.25-2.45-4.58-.91-9.14-1.91-13.64-3.18-4.69-1.32-9.63-2.62-13.85-5.16-.55-.4-1.08-.83-1.57-1.31-.29-.27-.7-.37-1.08-.26-1.33,.1-2.64,.39-3.88,.86-.92,.3-1.82,.66-2.68,1.09,.05-.04-2.03,1.01-1.65,1.37,2.62,2.56,6.13,3.88,9.48,5.2,2.84,1.12,5.82,1.98,8.76,2.82,2.99,.84,5.99,1.66,9.02,2.38,3.08,.74,6.17,1.52,9.3,2.06,3.41,.6,6.81,1.15,10.24,1.6,3.12,.41,6.25,.65,9.38,.92,1.82,.16,3.68,.17,5.51,.26,1.35,.06,2.7,.12,4.05,.14,3.56,.05,7.11,.07,10.66,0,5.54-.08,11.08-.37,16.61-.66,6.06-.32,12.12-.63,18.17-.99,.62-.05,1.24-.13,1.85-.24-2.36,.72-4.73,1.42-7.07,2.17-7.2,2.3-14.46,4.42-21.66,6.7-1.71,.56-3.38,1.23-4.99,2.02-1.04,.46-1.99,1.09-2.82,1.87-.47,.55-.35,.92,.35,1.09,.46,.02,.92,.05,1.39,.07,1.5-.12,2.99-.38,4.44-.78,10.48-3.01,20.9-6.22,31.33-9.38,2.63-.76,5.27-1.51,7.92-2.21,.11,0,.23-.01,.34-.02,1.64-.13,3.26-.42,4.85-.85,2.92-.7,5.75-1.74,8.44-3.08Zm-15.45,.24c-.13,.04-.26,.08-.4,.12,.1-.04,.2-.09,.3-.14l.1,.02Z" fill="#ffffff"/></svg>