<?xml version="1.0" encoding="utf-8"?>
<!-- Generator: Adobe Illustrator 27.0.0, SVG Export Plug-In . SVG Version: 6.00 Build 0)  -->
<svg version="1.1" id="图层_1" xmlns="http://www.w3.org/2000/svg" xmlns:xlink="http://www.w3.org/1999/xlink" x="0px" y="0px"
	 viewBox="0 0 32 32" style="enable-background:new 0 0 32 32;" xml:space="preserve">
<style type="text/css">
	.st0{fill:#F00000;}
</style>
<g id="组_3364" transform="translate(-755.997 -1198.672)">
	<g>
		<path d="M767,1201c-0.1,0-0.3,0-0.4,0.1c-5.1,3.4-6.9,4.7-7,4.8c0,0,0,0.1-0.1,0.1c0,0.1,0,0.4,0,0.6c0.5,1.5,1.1,3,1.7,4.5
			c1.4,3,3.1,5.8,5.3,8.3c2.1,2.5,4.5,4.7,7.2,6.6c1.3,0.9,2.7,1.8,4.2,2.5c0.1,0,0.2,0.1,0.3,0.1l0.1,0c0.2,0,0.4-0.1,0.5-0.2
			l5.7-6c0.3-0.3,0.3-0.7,0-1l-4.8-5.7c-0.2-0.3-0.6-0.3-0.9-0.2l-4.5,2.8l-0.3-0.3c-1.9-1.8-3.6-3.8-5-5.9l-0.2-0.3l3.5-4
			c0.2-0.3,0.2-0.7,0-0.9l-4.8-5.7C767.4,1201.1,767.2,1201,767,1201z M778,1226.9l-0.3-0.2c-1.1-0.6-2.2-1.3-3.2-2
			c-2.6-1.8-4.9-3.9-6.9-6.4c-2-2.4-3.7-5.1-5-7.9c-0.5-1.2-1-2.3-1.4-3.5l-0.1-0.4l5.9-4l4,4.7l-3.4,3.9c-0.2,0.2-0.2,0.6-0.1,0.9
			c1.7,2.9,3.9,5.4,6.4,7.7c0.2,0.2,0.6,0.2,0.9,0.1l4.4-2.7l4,4.7L778,1226.9z"/>
	</g>
	<polygon class="st0" points="780.9,1204.4 779.9,1205.4 781.7,1207.1 775.9,1207.1 775.9,1208.5 781.7,1208.5 779.9,1210.3 
		780.9,1211.3 784.4,1207.8 	"/>
</g>
</svg>
